<?xml version="1.0" encoding="UTF-8"?>
<svg version="1.1" xmlns="http://www.w3.org/2000/svg" width="1024" height="871">
<path d="M0 0 C270.6 0 541.2 0 820 0 C820 51.15 820 102.3 820 155 C803.17 155 786.34 155 769 155 C769 255.98 769 356.96 769 461 C819.49 461 869.98 461 922 461 C922 475.20988431 922 475.20988431 920.875 481.6875 C920.68031128 482.82070679 920.68031128 482.82070679 920.48168945 483.97680664 C915.82999667 508.90749846 902.35003819 530.5833419 881.67895508 545.29614258 C871.54500131 552.22878181 857.42846205 560 845 560 C845.00151888 560.5621435 845.00303776 561.12428701 845.00460267 561.70346516 C845.09420776 595.05595543 845.16279303 628.40841541 845.20426132 661.76099915 C845.20926386 665.7699469 845.21444118 669.77889441 845.21972656 673.7878418 C845.2207758 674.58591652 845.22182505 675.38399124 845.22290608 676.20625005 C845.24028871 689.11115905 845.27181452 702.01599642 845.30861118 714.920863 C845.34608036 728.17257672 845.36824846 741.42425306 845.37635398 754.67601758 C845.38182939 762.84632136 845.39909294 771.01642266 845.43166587 779.18666408 C845.45288765 784.79712703 845.45918281 790.40748602 845.45400551 796.01798614 C845.45145554 799.25005412 845.45745222 802.48169753 845.4768219 805.71371841 C845.58718575 825.08509649 844.42539945 841.3165833 830.73828125 856.34765625 C820.55746025 866.02515577 807.61373503 871.07335582 793.63427734 871.16113281 C791.77106339 871.17554413 791.77106339 871.17554413 789.87020874 871.19024658 C788.52545356 871.19509717 787.1806962 871.19937536 785.8359375 871.203125 C785.15033375 871.20595238 784.46473 871.20877975 783.75835037 871.21169281 C780.12649406 871.22664026 776.49467697 871.23589644 772.86279297 871.24023438 C769.14449845 871.2456974 765.42657409 871.26969183 761.708395 871.29820633 C758.82043471 871.31699815 755.93256044 871.32204711 753.04454422 871.32357025 C751.0174762 871.32800141 748.99045454 871.34656786 746.96347046 871.36553955 C731.00858857 871.32756964 717.99013196 867.49608187 706.3203125 856.375 C682.88121936 832.38347032 691 802.16537841 691 769 C505.54 769 320.08 769 129 769 C129 787.81 129 806.62 129 826 C124.90840102 842.3663959 118.78780293 855.04174687 104 864 C92.57360525 870.09520909 82.33802054 871.30964375 69.54296875 871.30078125 C68.14968236 871.30467902 66.75639714 871.30901587 65.3631134 871.31376648 C62.4541945 871.32118948 59.54539703 871.32096661 56.63647461 871.31567383 C52.94177378 871.30989151 49.24757628 871.326799 45.55295849 871.3500185 C42.67785321 871.3648816 39.80286556 871.36561053 36.92772865 871.36250877 C34.91397001 871.36325944 32.90022939 871.37702984 30.88652039 871.39118958 C15.75719693 871.31588236 1.06666865 867.64269725 -10.1953125 856.96484375 C-18.64703017 847.76308187 -25.12899918 835.92925379 -25.12304783 823.19930553 C-25.12503888 822.25580028 -25.12702993 821.31229502 -25.12908131 820.3401987 C-25.12616847 819.31198876 -25.12325563 818.28377882 -25.12025452 817.22441101 C-25.12110894 816.12574685 -25.12196337 815.0270827 -25.12284368 813.89512569 C-25.12449319 810.20700415 -25.11898572 806.51892791 -25.11352539 802.83081055 C-25.11324338 800.18971148 -25.11335748 797.5486152 -25.1139679 794.90751648 C-25.11449211 789.21795366 -25.11135595 783.52840232 -25.10573006 777.83884239 C-25.09760127 769.61270564 -25.09499842 761.38657444 -25.09374207 753.1604341 C-25.09155372 739.8139028 -25.08489951 726.4673776 -25.07543945 713.12084961 C-25.06625973 700.15633169 -25.05918163 687.19181543 -25.05493164 674.22729492 C-25.05466892 673.42809372 -25.05440619 672.62889253 -25.05413551 671.80547311 C-25.05283047 667.7960952 -25.05156676 663.78671727 -25.05032361 659.77733934 C-25.03995775 626.51822178 -25.02234533 593.25911171 -25 560 C-26.07813965 559.85900879 -27.1562793 559.71801758 -28.26708984 559.57275391 C-32.27133436 558.95836819 -35.86289598 557.81882449 -39.625 556.375 C-40.31867676 556.10993652 -41.01235352 555.84487305 -41.72705078 555.57177734 C-52.62299112 551.29274421 -62.25065402 545.81139264 -71 538 C-72.13888672 536.98486328 -72.13888672 536.98486328 -73.30078125 535.94921875 C-90.61796775 519.58911337 -100.13191944 496.54764706 -102 473 C-102 469.04 -102 465.08 -102 461 C-51.51 461 -1.02 461 51 461 C51 360.02 51 259.04 51 155 C34.17 155 17.34 155 0 155 C0 103.85 0 52.7 0 0 Z M129 155 C129 213.74 129 272.48 129 333 C143.85 330.36 158.7 327.72 174 325 C231.07082107 316.2594238 288.32860498 311.27253587 346 309 C346.75249023 308.96970703 347.50498047 308.93941406 348.28027344 308.90820312 C449.25000472 304.86761806 552.08613637 309.22284578 682.83494568 331.6164093 C685.55309699 332.09799424 688.27707559 332.54617927 691 333 C691 274.26 691 215.52 691 155 C505.54 155 320.08 155 129 155 Z M146.4921875 437.625 C132.44366621 453.62602764 127.68675147 474.11981913 129 495 C131.7234189 515.8438045 142.182689 534.69435092 158.6875 547.6875 C176.62670717 560.50769098 196.01171383 565.38863861 217.82421875 562.4921875 C234.38570561 559.3220019 248.04915986 551.75428027 260 540 C260.70125 539.31164062 261.4025 538.62328125 262.125 537.9140625 C275.80709382 523.53717486 282.16195611 504.64367363 282.05517578 484.99609375 C281.45158567 463.16001949 271.46865432 443.7120372 255.8125 428.8125 C221.76090288 399.96323021 176.07806664 406.65660315 146.4921875 437.625 Z M558.80859375 434.12109375 C544.95897148 448.89221731 537.17995831 468.35469776 537.81640625 488.68359375 C539.49166331 509.82034768 546.97928354 526.92739851 562 542 C562.67417969 542.69738281 563.34835937 543.39476562 564.04296875 544.11328125 C578.85005607 558.42031684 599.05842189 563.61554919 619.1640625 563.2734375 C636.08581831 562.58897721 651.20181319 555.96987441 664 545 C664.58910156 544.55398438 665.17820312 544.10796875 665.78515625 543.6484375 C679.1694701 533.22147773 687.79030738 515.1954694 690.55078125 498.7109375 C693.14782677 477.25708316 688.35407586 456.71834585 675 439.5 C673.68889075 437.98053618 672.35637547 436.47919687 671 435 C670.38640625 434.30648438 669.7728125 433.61296875 669.140625 432.8984375 C655.14722869 417.92203401 636.01664936 411.11990925 615.9609375 410.0390625 C593.47336084 409.81729153 574.79301789 418.64953884 558.80859375 434.12109375 Z " fill="#FF3B10" transform="translate(102,0)"/>
</svg>
